<?xml version="1.0" encoding="UTF-8"?>
<svg width="1e3" height="473.337738" xmlns="http://www.w3.org/2000/svg">
    <g transform="translate(-360.8473774 81.46652473)">
        <g transform="matrix(8.063246103 0 0 8.063246103 -2125.719138 -2384.121733)">
            <path d="m432.402344 332.617188h-124.019531v-47.042969h124.019531z" fill="#ba1102"/>
            <path d="m395.25 341.722656-48.769531 2.554688-0.929688-17.789063 48.765625-2.554687z"/>
            <g fill="#fff">
                <path d="m353.578125 334.3125 0.148438 5.898438-2.308594 0.121093-0.109375-10.625 2.390625-0.125 2.898437 6.617188 2.195313-6.886719 2.386719-0.125 1.003906 10.582031-2.308594 0.121094-0.46875-5.882812-1.609375 4.617187-2.132812 0.113281z"/>
                <path d="m366.472656 337.582031 4.699219-0.246093 0.101563 1.957031-7.417969 0.386719-0.101563-1.941407 4.3125-6.949218-4.457031 0.234375-0.105469-1.957032 7.136719-0.375 0.101563 1.957032z"/>
                <path d="m373.183594 339.191406-0.554688-10.601562 2.390625-0.125 0.554688 10.601562z"/>
                <path d="m377.167969 328.351563 2.386719-0.125 0.558593 10.601562-2.390625 0.125zm2.960937 5.046875 2.59375-5.339844 2.691407-0.140625-2.703125 5.347656 3.484375 5.246094-2.691407 0.140625z"/>
                <path d="m387.625 338.433594-0.554687-10.601563 2.390625-0.125 0.554687 10.601563z"/>
                <path d="m418.804688 305.648438v-6.558594l-17.511719 0.015625v1.707031c-1.488281-1.335937-3.9375-2.238281-7.652344-2.238281-7.054687 0-9.589844 2.757812-9.589844 6.957031v6.164063c0 2.082031-0.40625 2.480468-1.074218 2.492187-0.683594-0.011719-1.074219-0.503906-1.074219-2.492187v-12.605469h-8.519531c-3.054688 0-5.332032 1.429687-6.933594 5.683594l-2.773438 8.074218c-0.265625 0.71875-0.574218 0.832032-0.90625 0.832032-0.386718 0-0.75-0.234375-1.003906-1.035157l-0.9375-1.984375c2.316406-1.082031 3.121094-2.90625 3.121094-4.917968v-0.621094c0-3.292969-1.90625-6.03125-9.683594-6.03125h-32.285156v6.558594h5.292969v-1.378907c0-0.433593 0.355468-0.785156 0.792968-0.785156h2.125l-0.003906 12.085938c0 2.242187 1.824219 4.050781 4.070313 4.050781h4.023437v-4.535156l-0.050781 0.007812c-0.800781 0-1.457031-0.652344-1.457031-1.457031v-10.152344h2.132812c0.4375 0 0.789063 0.351563 0.789063 0.785156v1.378907h5.128906v-0.074219l0.003906 0.074219v8c0 0.800781-0.648437 1.449218-1.457031 1.449218v4.519532h8.101562v-7.816407l0.675782 0.003907c1.078125 0 2.019531 0.511718 2.503906 1.390625l3.359375 6.421875h6.75c2.976562 0 3.621094-0.648438 4.589844-3.082032l1.183593-3.308593h4.761719l-0.011719 6.390625h43.519532v-6.699219h-5.335938l0.007813 1.375c0 0.433594-0.355469 0.78125-0.792969 0.78125l-4.753906-0.011719v-3.722656h3.992187v-4.335938h-3.992187v-3.527343l4.753906 0.003906c0.4375 0 0.792969 0.351562 0.792969 0.789062l-0.007813 1.378907zm-61.707032-0.214844c0 1.066406-0.542968 1.925781-3.050781 1.925781l-2.578125-0.003906v-3.878906h2.566406c2.511719 0 3.0625 0.890625 3.0625 1.953125zm18.179688 3.445312-3.453125-0.003906 0.621094-1.597656c1.003906-2.402344 1.710937-3.011719 2.832031-3.011719zm21.3125 2.972657-0.003906 0.167968c0 2.503907-1.324219 3.039063-2.960938 3.039063-1.636719 0-2.960937-0.535156-2.960937-3.039063v-5.582031c0-2.5 1.324218-3.035156 2.960937-3.035156 1.636719 0 2.960938 0.535156 2.960938 3.035156l-0.007813 0.132813h4.820313l0.109375 5.277343z"/>
            </g>
        </g>
    </g>
</svg>
